HIERARCHY
ROOT Hips
{
	OFFSET 0.000000 0.000000 0.000000
	CHANNELS 6 Xposition Yposition Zposition Zrotation Yrotation Xrotation 
	JOINT LowerBack
	{
		OFFSET 0.000000 0.000000 0.000000
		CHANNELS 3 Zrotation Yrotation Xrotation
		JOINT Spine
		{
			OFFSET 0.028270 2.035590 -0.193380
			CHANNELS 3 Zrotation Yrotation Xrotation
			JOINT Spine1
			{
				OFFSET 0.056720 2.048850 -0.042750
				CHANNELS 3 Zrotation Yrotation Xrotation
				JOINT Neck
				{
					OFFSET 0.000000 0.000000 0.000000
					CHANNELS 3 Zrotation Yrotation Xrotation
					JOINT Neck1
					{
						OFFSET -0.054170 1.746240 0.172020
						CHANNELS 3 Zrotation Yrotation Xrotation
						JOINT Head
						{
							OFFSET 0.104070 1.761360 -0.123970
							CHANNELS 3 Zrotation Yrotation Xrotation
							End Site
							{
								OFFSET 0.000000 0.000000 0.000000
							}
						}
					}
				}
				JOINT LeftShoulder
				{
					OFFSET 0.000000 0.000000 0.000000
					CHANNELS 3 Zrotation Yrotation Xrotation
					JOINT LeftArm
					{
						OFFSET 3.362410 1.200890 -0.311210
						CHANNELS 3 Zrotation Yrotation Xrotation
						JOINT LeftForeArm
						{
							OFFSET 4.983000 -0.000000 -0.000000
							CHANNELS 3 Zrotation Yrotation Xrotation
							JOINT LeftHand
							{
								OFFSET 3.483560 -0.000000 -0.000000
								CHANNELS 3 Zrotation Yrotation Xrotation
								JOINT LeftFingerBase
								{
									OFFSET 0.000000 0.000000 0.000000
									CHANNELS 3 Zrotation Yrotation Xrotation
									JOINT LeftHandIndex1
									{
										OFFSET 0.715260 -0.000000 -0.000000
										CHANNELS 3 Zrotation Yrotation Xrotation
										End Site
										{
											OFFSET 0.000000 0.000000 0.000000
										}
									}
								}
								JOINT LThumb
								{
									OFFSET 0.000000 0.000000 0.000000
									CHANNELS 3 Zrotation Yrotation Xrotation
									End Site
									{
										OFFSET 0.000000 0.000000 0.000000
									}
								}
							}
						}
					}
				}
				JOINT RightShoulder
				{
					OFFSET 0.000000 0.000000 0.000000
					CHANNELS 3 Zrotation Yrotation Xrotation
					JOINT RightArm
					{
						OFFSET -3.136600 1.374050 -0.404650
						CHANNELS 3 Zrotation Yrotation Xrotation
						JOINT RightForeArm
						{
							OFFSET -5.241900 -0.000000 -0.000000
							CHANNELS 3 Zrotation Yrotation Xrotation
							JOINT RightHand
							{
								OFFSET -3.444170 -0.000000 -0.000000
								CHANNELS 3 Zrotation Yrotation Xrotation
								JOINT RightFingerBase
								{
									OFFSET 0.000000 0.000000 0.000000
									CHANNELS 3 Zrotation Yrotation Xrotation
									JOINT RightHandIndex1
									{
										OFFSET -0.622530 -0.000000 -0.000000
										CHANNELS 3 Zrotation Yrotation Xrotation
										End Site
										{
											OFFSET 0.000000 0.000000 0.000000
										}
									}
								}
								JOINT RThumb
								{
									OFFSET 0.000000 0.000000 0.000000
									CHANNELS 3 Zrotation Yrotation Xrotation
									End Site
									{
										OFFSET 0.000000 0.000000 0.000000
									}
								}
							}
						}
					}
				}
			}
		}
	}
}
}
MOTION
Frames: 18
Frame Time: 0.008333
3.753511 17.282593 0.789402 11.969843 -81.178571 0.853052 -0.021822 5.486582 -4.059247 0.332758 5.606143 -4.026249 1.850137 5.630324 -3.552373 -8.638464 7.444304 0.266306 -0.182876 -0.155706 2.253541 0.000000 0.000000 0.000000 0.128672 3.621607 -5.240581 -93.691594 -31.147233 37.228379 -179.923283 -54.751780 179.938773 2.522425 -8.381272 -0.202593 0.088288 1.062025 -0.000000 0.000000 0.000000 0.000000 0.000000 0.000000 0.000000 -21.305464 14.500868 3.275535 -5.848259 56.700932 -103.849009 -3.826120 2.569837 -0.095787 -15.243331 10.896452 -1.564426 0.257309 -0.556575 -0.000000 0.000000 0.000000 0.000000 0.000000 0.000000 0.000000 
3.744909 17.281398 0.788914 11.275898 -80.875627 1.535746 0.006307 5.433779 -4.093918 0.311439 5.549221 -4.063409 1.719041 5.583769 -3.684279 -8.472193 7.213694 0.349848 -0.229645 -0.160316 2.277573 0.000000 0.000000 0.000000 0.281876 3.632223 -5.171710 -93.676435 -30.970161 37.082807 -179.902614 -54.708183 179.938686 2.533833 -8.391694 -0.203944 0.086509 1.067107 -0.000000 0.000000 0.000000 0.000000 0.000000 0.000000 0.000000 -21.068993 14.255514 2.922788 -3.980330 57.126737 -101.453310 -3.868236 3.875415 -0.096255 -14.368630 11.115730 -1.502858 0.227690 -0.572233 -0.000000 0.000000 0.000000 0.000000 0.000000 0.000000 0.000000 
3.736312 17.279937 0.788989 10.614034 -80.583282 2.177556 0.041173 5.364522 -4.110599 0.278340 5.473772 -4.117246 1.520217 5.523579 -3.895066 -8.197144 7.047498 0.502933 -0.301250 -0.167712 2.320718 0.000000 0.000000 0.000000 0.494426 3.637039 -5.066353 -93.604425 -30.746572 36.874446 -179.865074 -54.667294 179.938579 2.563793 -8.389600 -0.206768 0.082580 1.073511 -0.000000 0.000000 0.000000 0.000000 0.000000 0.000000 0.000000 -20.662482 14.052276 2.437997 -1.430370 57.603477 -97.501636 -3.946351 5.691968 -0.096978 -13.328883 11.208280 -1.404599 0.192209 -0.590006 -0.000000 0.000000 0.000000 0.000000 0.000000 0.000000 0.000000 
3.727885 17.278208 0.789496 10.001920 -80.309429 2.764212 0.072778 5.282810 -4.101883 0.231719 5.384388 -4.192226 1.253698 5.454375 -4.208451 -7.814279 6.972653 0.734012 -0.391219 -0.177644 2.385551 0.000000 0.000000 0.000000 0.774637 3.640891 -4.922991 -93.490807 -30.469576 36.625146 -179.813937 -54.638308 179.938408 2.610150 -8.378617 -0.210980 0.076852 1.081009 -0.000000 0.000000 0.000000 0.000000 0.000000 0.000000 0.000000 -20.127687 13.908450 1.792363 2.129747 57.991952 -91.273527 -4.104125 8.166813 -0.098899 -12.403900 10.931771 -1.275440 0.158168 -0.606297 -0.000000 0.000000 0.000000 0.000000 0.000000 0.000000 0.000000 
3.719697 17.276274 0.790260 9.443630 -80.066764 3.292535 0.097511 5.185053 -4.066974 0.175591 5.277779 -4.285777 0.937051 5.370402 -4.610792 -7.345376 6.997300 1.028236 -0.493889 -0.189413 2.467770 0.000000 0.000000 0.000000 1.108121 3.669957 -4.749595 -93.342143 -30.147661 36.349260 -179.755135 -54.620587 179.938114 2.672171 -8.361530 -0.216389 0.069794 1.089014 -0.000000 0.000000 0.000000 0.000000 0.000000 0.000000 0.000000 -19.498614 13.808345 1.020034 6.592187 58.151660 -83.123858 -4.380972 11.277040 -0.103035 -11.762682 10.305612 -1.142770 0.127469 -0.621850 -0.000000 0.000000 0.000000 0.000000 0.000000 0.000000 0.000000 
3.711606 17.274282 0.791150 8.935720 -79.869385 3.765032 0.115814 5.063492 -4.016471 0.118728 5.146587 -4.387877 0.604346 5.259902 -5.047137 -6.824329 7.103982 1.354762 -0.605850 -0.202105 2.558239 0.000000 0.000000 0.000000 1.461009 3.755187 -4.561470 -93.157187 -29.807326 36.051368 -179.696497 -54.608737 179.937617 2.750785 -8.339736 -0.223096 0.061943 1.096832 -0.000000 0.000000 0.000000 0.000000 0.000000 0.000000 0.000000 -18.783671 13.713790 0.211796 11.443068 58.032154 -74.241098 -4.759553 14.877182 -0.109834 -11.433002 9.486593 -1.026472 0.098518 -0.638973 -0.000000 0.000000 0.000000 0.000000 0.000000 0.000000 0.000000 
3.703662 17.272327 0.792060 8.465145 -79.726197 4.186835 0.129408 4.914173 -3.967122 0.070003 4.987500 -4.485863 0.290880 5.115700 -5.449651 -6.283419 7.251518 1.685161 -0.724640 -0.214921 2.648544 0.000000 0.000000 0.000000 1.793858 3.909125 -4.372900 -92.932345 -29.486045 35.733685 -179.643675 -54.600988 179.936868 2.846590 -8.313423 -0.231095 0.053703 1.104070 -0.000000 0.000000 0.000000 0.000000 0.000000 0.000000 0.000000 -17.980456 13.587496 -0.541712 16.142836 57.695485 -65.860529 -5.152159 18.810842 -0.118765 -11.338260 8.659680 -0.934127 0.069351 -0.659238 0.000000 0.000000 0.000000 0.000000 0.000000 0.000000 0.000000 
3.695778 17.270506 0.792913 8.019254 -79.636897 4.565642 0.137590 4.740211 -3.932870 0.032746 4.804299 -4.570652 0.012658 4.940119 -5.771242 -5.735337 7.385268 2.002519 -0.850663 -0.227513 2.733757 0.000000 0.000000 0.000000 2.086934 4.124738 -4.192528 -92.670861 -29.215933 35.405099 -179.597590 -54.604261 179.935902 2.956332 -8.283458 -0.240180 0.045315 1.110763 -0.000000 0.000000 0.000000 0.000000 0.000000 0.000000 0.000000 -17.075663 13.398910 -1.194548 20.423860 57.244367 -58.594839 -5.458682 22.987065 -0.129064 -11.429565 7.930395 -0.867828 0.040942 -0.681803 -0.000000 0.000000 0.000000 0.000000 0.000000 0.000000 0.000000 
3.687851 17.268848 0.793613 7.588092 -79.594209 4.912341 0.141916 4.548889 -3.919016 0.007278 4.604436 -4.638549 -0.226498 4.741254 -5.998109 -5.194474 7.472457 2.298406 -0.980119 -0.239514 2.811754 0.000000 0.000000 0.000000 2.328616 4.389294 -4.022633 -92.376653 -29.015503 35.076245 -179.555808 -54.623450 179.934802 3.074891 -8.249886 -0.249749 0.036849 1.116964 -0.000000 0.000000 0.000000 0.000000 0.000000 0.000000 0.000000 -16.102631 13.139385 -1.746051 24.342261 56.725067 -52.491812 -5.618272 27.423608 -0.139934 -11.641454 7.324555 -0.821878 0.013680 -0.704814 -0.000000 0.000000 0.000000 0.000000 0.000000 0.000000 0.000000 
3.679583 17.267334 0.794099 7.167396 -79.587123 5.236300 0.142224 4.347364 -3.927904 -0.008840 4.395072 -4.688459 -0.432965 4.527616 -6.129742 -4.664193 7.492116 2.566451 -1.111730 -0.250764 2.880984 0.000000 0.000000 0.000000 2.523085 4.688953 -3.865166 -92.059422 -28.891361 34.758053 -179.515902 -54.662106 179.933677 3.194851 -8.213810 -0.259303 0.028484 1.122773 -0.000000 0.000000 0.000000 0.000000 0.000000 0.000000 0.000000 -15.083566 12.806711 -2.202972 27.998402 56.144030 -47.379843 -5.602192 32.141222 -0.150875 -11.952449 6.820226 -0.791194 -0.011119 -0.725990 -0.000000 0.000000 0.000000 0.000000 0.000000 0.000000 0.000000 
3.670802 17.265946 0.794363 6.750680 -79.602706 5.547671 0.136401 4.141496 -3.960781 -0.019775 4.182017 -4.720581 -0.619328 4.306494 -6.171039 -4.137476 7.429163 2.801670 -1.247109 -0.261303 2.940194 0.000000 0.000000 0.000000 2.685349 5.009236 -3.722520 -91.732709 -28.843367 34.460288 -179.475559 -54.721547 179.932654 3.306898 -8.177524 -0.268043 0.020494 1.128393 -0.000000 0.000000 0.000000 0.000000 0.000000 0.000000 0.000000 -14.021662 12.401521 -2.571425 31.452758 55.489044 -43.039620 -5.402752 37.133515 -0.161607 -12.359430 6.389794 -0.771992 -0.032006 -0.743542 -0.000000 0.000000 0.000000 0.000000 0.000000 0.000000 0.000000 
3.661321 17.264602 0.794377 6.334387 -79.627730 5.855327 0.124483 3.935927 -4.017193 -0.028323 3.969744 -4.736658 -0.793729 4.083849 -6.134614 -3.614685 7.294083 3.002921 -1.383635 -0.271012 2.989292 0.000000 0.000000 0.000000 2.825767 5.333551 -3.594511 -91.405828 -28.861042 34.184254 -179.433372 -54.800332 179.931826 3.404447 -8.141750 -0.275475 0.013088 1.133900 -0.000000 0.000000 0.000000 0.000000 0.000000 0.000000 0.000000 -12.947606 11.946606 -2.858891 34.770699 54.715491 -39.290476 -5.028118 42.398960 -0.171552 -12.814377 6.013923 -0.758687 -0.049217 -0.756692 -0.000000 0.000000 0.000000 0.000000 0.000000 0.000000 0.000000 
3.650953 17.263203 0.794196 5.919041 -79.649096 6.163279 0.104750 3.734090 -4.096399 -0.038250 3.761594 -4.739226 -0.967672 3.864346 -6.034250 -3.087363 7.092119 3.170476 -1.521645 -0.279978 3.028501 0.000000 0.000000 0.000000 2.962381 5.646284 -3.481350 -91.090412 -28.931026 33.930187 -179.388050 -54.894774 179.931277 3.481395 -8.108272 -0.281297 0.006461 1.139511 -0.000000 0.000000 0.000000 0.000000 0.000000 0.000000 0.000000 -11.870152 11.457971 -3.073818 37.959019 53.795391 -35.981262 -4.500537 47.887126 -0.180343 -13.284354 5.690730 -0.749292 -0.062610 -0.765417 -0.000000 0.000000 0.000000 0.000000 0.000000 0.000000 0.000000 
3.639442 17.261703 0.793854 5.507864 -79.655767 6.474759 0.075287 3.537821 -4.196935 -0.053208 3.559334 -4.731580 -1.152970 3.650858 -5.885229 -2.544270 6.825388 3.305767 -1.662794 -0.288389 3.058350 0.000000 0.000000 0.000000 3.115262 5.933172 -3.382730 -90.797410 -29.035502 33.696163 -179.338398 -55.000994 179.931069 3.533544 -8.078670 -0.285010 0.000704 1.145441 -0.000000 0.000000 0.000000 0.000000 0.000000 0.000000 0.000000 -10.787912 10.944582 -3.227726 41.005360 52.720897 -32.986388 -3.855607 53.516131 -0.187707 -13.736427 5.429615 -0.743614 -0.072175 -0.770315 -0.000000 0.000000 0.000000 0.000000 0.000000 0.000000 0.000000 
3.626870 17.259986 0.793376 5.102654 -79.639514 6.789615 0.036097 3.347589 -4.315143 -0.075164 3.363320 -4.717203 -1.356689 3.444632 -5.704411 -1.981579 6.502429 3.411544 -1.806167 -0.296319 3.079812 0.000000 0.000000 0.000000 3.297809 6.184334 -3.297196 -90.532647 -29.154942 33.475266 -179.284036 -55.113280 179.931214 3.560476 -8.054109 -0.286815 -0.004194 1.151827 -0.000000 0.000000 0.000000 0.000000 0.000000 0.000000 0.000000 -9.716093 10.417048 -3.335131 43.916243 51.491607 -30.215621 -3.136656 59.198276 -0.193359 -14.118998 5.253311 -0.742657 -0.078557 -0.772636 -0.000000 0.000000 0.000000 0.000000 0.000000 0.000000 0.000000 
3.613097 17.258021 0.792817 4.714487 -79.596068 7.101058 -0.015845 3.162803 -4.448952 -0.106181 3.173159 -4.699411 -1.584826 3.245869 -5.505105 -1.390703 6.122546 3.490713 -1.953691 -0.304002 3.093830 0.000000 0.000000 0.000000 3.529020 6.389695 -3.224857 -90.305599 -29.266197 33.259560 -179.226258 -55.222597 179.931696 3.562096 -8.036714 -0.286714 -0.008131 1.158842 -0.000000 0.000000 0.000000 0.000000 0.000000 0.000000 0.000000 -8.647582 9.872690 -3.408528 46.678635 50.130576 -27.590254 -2.388809 64.830148 -0.197239 -14.404844 5.175629 -0.747918 -0.081876 -0.773467 -0.000000 0.000000 0.000000 0.000000 0.000000 0.000000 0.000000 
3.598337 17.255723 0.792268 4.339273 -79.524747 7.413216 -0.073148 2.980798 -4.591976 -0.144834 2.985671 -4.679395 -1.838432 3.051852 -5.295966 -0.781172 5.689179 3.542000 -2.102586 -0.311345 3.100293 0.000000 0.000000 0.000000 3.803281 6.561575 -3.163326 -90.109681 -29.365534 33.043456 -179.162621 -55.324397 179.932459 3.547158 -8.023019 -0.285400 -0.011744 1.166356 -0.000000 0.000000 0.000000 0.000000 0.000000 0.000000 0.000000 -7.612328 9.308054 -3.464368 49.340029 48.674158 -25.062010 -1.655242 70.317844 -0.199277 -14.542770 5.237139 -0.762995 -0.083217 -0.774621 -0.000000 0.000000 0.000000 0.000000 0.000000 0.000000 0.000000 
3.582540 17.253074 0.791717 3.991404 -79.428694 7.713580 -0.141398 2.800535 -4.743565 -0.191952 2.800405 -4.659254 -2.117293 2.862274 -5.083945 -0.145252 5.199894 3.569112 -2.255481 -0.318622 3.100311 0.000000 0.000000 0.000000 4.137888 6.687424 -3.114178 -89.954116 -29.426965 32.815127 -179.097287 -55.410086 179.933434 3.516657 -8.017378 -0.283077 -0.014734 1.174510 -0.000000 0.000000 0.000000 0.000000 0.000000 0.000000 0.000000 -6.590165 8.715167 -3.508146 51.877789 47.151694 -22.582842 -0.968675 75.580059 -0.199630 -14.539620 5.424170 -0.786883 -0.082315 -0.776574 -0.000000 0.000000 0.000000 0.000000 0.000000 0.000000 0.000000 
